<svg width="24" height="24" viewBox="0 0 24 24" fill="none" xmlns="http://www.w3.org/2000/svg">
    <g clip-path="url(#clip0_132_802)">
        <path d="M20.5 5C19.39 4.65 18.17 4.5 17 4.5C15.05 4.5 12.95 4.9 11.5 6C10.05 4.9 7.95 4.5 6 4.5C4.05 4.5 1.95 4.9 0.5 6V20.65C0.5 20.9 0.75 21.15 1 21.15C1.1 21.15 1.15 21.1 1.25 21.1C2.6 20.45 4.55 20 6 20C7.95 20 10.05 20.4 11.5 21.5C12.85 20.65 15.3 20 17 20C18.65 20 20.35 20.3 21.75 21.05C21.85 21.1 21.9 21.1 22 21.1C22.25 21.1 22.5 20.85 22.5 20.6V6C21.9 5.55 21.25 5.25 20.5 5ZM20.5 18.5C19.4 18.15 18.2 18 17 18C15.3 18 12.85 18.65 11.5 19.5V8C12.85 7.15 15.3 6.5 17 6.5C18.2 6.5 19.4 6.65 20.5 7V18.5Z" fill="currentColor"/>
        <path d="M17 10.5C17.88 10.5 18.73 10.59 19.5 10.76V9.24C18.71 9.09 17.86 9 17 9C15.3 9 13.76 9.29 12.5 9.83V11.49C13.63 10.85 15.2 10.5 17 10.5Z" fill="currentColor"/>
        <path d="M12.5 12.4902V14.1502C13.63 13.5102 15.2 13.1602 17 13.1602C17.88 13.1602 18.73 13.2502 19.5 13.4202V11.9002C18.71 11.7502 17.86 11.6602 17 11.6602C15.3 11.6602 13.76 11.9602 12.5 12.4902Z" fill="currentColor"/>
        <path d="M17 14.3301C15.3 14.3301 13.76 14.6201 12.5 15.1601V16.8201C13.63 16.1801 15.2 15.8301 17 15.8301C17.88 15.8301 18.73 15.9201 19.5 16.0901V14.5701C18.71 14.4101 17.86 14.3301 17 14.3301Z" fill="currentColor"/>
    </g>
    <defs>
        <clipPath id="clip0_132_802">
            <rect width="24" height="24" fill="white" transform="translate(-0.5)"/>
        </clipPath>
    </defs>
</svg>
