<svg width="22" height="20" viewBox="0 0 22 20" fill="none" xmlns="http://www.w3.org/2000/svg">
    <path d="M20 3.23195C20 2.89632 19.7804 2.55762 19.3867 2.40968C17.0531 1.53396 14.4469 1.53396 12.1133 2.40968L11.5 2.63917V17.9243L12.3916 17.5903C14.5483 16.781 16.9517 16.781 19.1084 17.5903C19.5969 17.7737 19.9997 17.4113 20 17.0825V3.23195ZM1.5 17.0825C1.50028 17.4113 1.90305 17.7737 2.3916 17.5903C4.54834 16.781 6.95166 16.781 9.1084 17.5903L10 17.9243V2.63917L9.38672 2.40968C7.05312 1.53396 4.44688 1.53396 2.11328 2.40968C1.71958 2.55762 1.5 2.89632 1.5 3.23195V17.0825ZM21.5 17.0825C21.4998 18.5971 19.9179 19.4956 18.582 18.9946C16.765 18.3128 14.735 18.3128 12.918 18.9946L11.0273 19.7036C10.9397 19.7365 10.845 19.7498 10.75 19.7476C10.655 19.7498 10.5603 19.7365 10.4727 19.7036L8.58203 18.9946C6.76501 18.3128 4.73499 18.3128 2.91797 18.9946C1.58213 19.4956 0.000238841 18.5971 0 17.0825V3.23195C0 2.22494 0.652016 1.35524 1.58691 1.00441C4.26005 0.00137955 7.23995 0.00137979 9.91309 1.00441L10.75 1.31788L11.5869 1.00441C14.26 0.00137979 17.24 0.00137955 19.9131 1.00441C20.848 1.35524 21.5 2.22494 21.5 3.23195V17.0825Z" fill="currentColor"/>
</svg>
