<svg width="24" height="27" viewBox="0 0 24 27" fill="none" xmlns="http://www.w3.org/2000/svg">
    <path d="M12 16.3501L8.805 19.4851C7.965 20.3251 7.5 21.4201 7.5 22.5901C7.5 25.0201 9.525 27.0001 12 27.0001C14.475 27.0001 16.5 25.0201 16.5 22.5901C16.5 21.4201 16.035 20.3101 15.195 19.4851L12 16.3501Z" fill="currentColor"/>
    <path d="M18 6L17.34 6.825C15.57 9.03 12 7.785 12 4.95V0C12 0 0 6 0 16.5C0 20.88 2.34 24.705 5.835 26.79C4.995 25.605 4.5 24.15 4.5 22.59C4.5 20.61 5.28 18.75 6.705 17.34L12 12.15L17.295 17.355C18.72 18.75 19.5 20.61 19.5 22.605C19.5 24.135 19.035 25.545 18.225 26.73C21.06 25.005 23.16 22.14 23.79 18.78C24.78 13.455 22.185 8.43 18 6Z" fill="currentColor"/>
</svg>
