<svg width="20" height="20" viewBox="0 0 20 20" fill="none" xmlns="http://www.w3.org/2000/svg">
    <g clip-path="url(#clip0_2260_2339)">
        <path d="M10 0C8.02219 0 6.08879 0.58649 4.4443 1.6853C2.79981 2.78412 1.51809 4.3459 0.761209 6.17317C0.00433286 8.00043 -0.193701 10.0111 0.192152 11.9509C0.578004 13.8907 1.53041 15.6725 2.92894 17.0711C4.32746 18.4696 6.10929 19.422 8.0491 19.8079C9.98891 20.1937 11.9996 19.9957 13.8268 19.2388C15.6541 18.4819 17.2159 17.2002 18.3147 15.5557C19.4135 13.9112 20 11.9778 20 10C19.9971 7.34872 18.9426 4.80684 17.0679 2.9321C15.1932 1.05736 12.6513 0.00286757 10 0V0ZM10.8333 18.2908V16.6667C10.8333 16.4457 10.7455 16.2337 10.5893 16.0774C10.433 15.9211 10.221 15.8333 10 15.8333C9.77899 15.8333 9.56703 15.9211 9.41075 16.0774C9.25447 16.2337 9.16667 16.4457 9.16667 16.6667V18.2908C7.25515 18.0962 5.46932 17.248 4.11068 15.8893C2.75204 14.5307 1.9038 12.7449 1.70917 10.8333H3.33334C3.55435 10.8333 3.76631 10.7455 3.92259 10.5893C4.07887 10.433 4.16667 10.221 4.16667 10C4.16667 9.77899 4.07887 9.56703 3.92259 9.41074C3.76631 9.25447 3.55435 9.16667 3.33334 9.16667H1.70917C1.9038 7.25514 2.75204 5.46932 4.11068 4.11068C5.46932 2.75203 7.25515 1.9038 9.16667 1.70917V3.33333C9.16667 3.55435 9.25447 3.76631 9.41075 3.92259C9.56703 4.07887 9.77899 4.16667 10 4.16667C10.221 4.16667 10.433 4.07887 10.5893 3.92259C10.7455 3.76631 10.8333 3.55435 10.8333 3.33333V1.70917C12.7449 1.9038 14.5307 2.75203 15.8893 4.11068C17.248 5.46932 18.0962 7.25514 18.2908 9.16667H16.6667C16.4457 9.16667 16.2337 9.25447 16.0774 9.41074C15.9211 9.56703 15.8333 9.77899 15.8333 10C15.8333 10.221 15.9211 10.433 16.0774 10.5893C16.2337 10.7455 16.4457 10.8333 16.6667 10.8333H18.2908C18.0962 12.7449 17.248 14.5307 15.8893 15.8893C14.5307 17.248 12.7449 18.0962 10.8333 18.2908ZM13.3333 10C13.3333 10.221 13.2455 10.433 13.0893 10.5893C12.933 10.7455 12.721 10.8333 12.5 10.8333H10.8333V12.5C10.8333 12.721 10.7455 12.933 10.5893 13.0893C10.433 13.2455 10.221 13.3333 10 13.3333C9.77899 13.3333 9.56703 13.2455 9.41075 13.0893C9.25447 12.933 9.16667 12.721 9.16667 12.5V10.8333H7.5C7.27899 10.8333 7.06703 10.7455 6.91075 10.5893C6.75447 10.433 6.66667 10.221 6.66667 10C6.66667 9.77899 6.75447 9.56703 6.91075 9.41074C7.06703 9.25447 7.27899 9.16667 7.5 9.16667H9.16667V7.5C9.16667 7.27899 9.25447 7.06703 9.41075 6.91074C9.56703 6.75446 9.77899 6.66667 10 6.66667C10.221 6.66667 10.433 6.75446 10.5893 6.91074C10.7455 7.06703 10.8333 7.27899 10.8333 7.5V9.16667H12.5C12.721 9.16667 12.933 9.25447 13.0893 9.41074C13.2455 9.56703 13.3333 9.77899 13.3333 10Z" fill="currentColor"/>
    </g>
    <defs>
        <clipPath id="clip0_2260_2339">
            <rect width="20" height="20" fill="white"/>
        </clipPath>
    </defs>
</svg>
