<svg width="20" height="20" viewBox="0 0 20 20" fill="none" xmlns="http://www.w3.org/2000/svg">
    <g clip-path="url(#clip0_2260_2309)">
        <path d="M19.2675 7.54566L12.9467 1.224C12.1644 0.443994 11.1047 0.00598145 10 0.00598145C8.89528 0.00598145 7.83563 0.443994 7.05334 1.224L0.732509 7.54566C0.499531 7.77715 0.314818 8.05258 0.189079 8.35598C0.0633393 8.65939 -0.000925333 8.98473 1.00662e-05 9.31316V17.494C1.00662e-05 18.157 0.263402 18.7929 0.732242 19.2618C1.20108 19.7306 1.83697 19.994 2.50001 19.994H17.5C18.163 19.994 18.7989 19.7306 19.2678 19.2618C19.7366 18.7929 20 18.157 20 17.494V9.31316C20.0009 8.98473 19.9367 8.65939 19.8109 8.35598C19.6852 8.05258 19.5005 7.77715 19.2675 7.54566ZM12.5 18.3273H7.5V15.049C7.5 14.3859 7.76339 13.7501 8.23223 13.2812C8.70108 12.8124 9.33696 12.549 10 12.549C10.663 12.549 11.2989 12.8124 11.7678 13.2812C12.2366 13.7501 12.5 14.3859 12.5 15.049V18.3273ZM18.3333 17.494C18.3333 17.715 18.2455 17.927 18.0892 18.0832C17.933 18.2395 17.721 18.3273 17.5 18.3273H14.1667V15.049C14.1667 13.9439 13.7277 12.8841 12.9463 12.1027C12.1649 11.3213 11.1051 10.8823 10 10.8823C8.89493 10.8823 7.83513 11.3213 7.05372 12.1027C6.27232 12.8841 5.83334 13.9439 5.83334 15.049V18.3273H2.50001C2.27899 18.3273 2.06703 18.2395 1.91075 18.0832C1.75447 17.927 1.66668 17.715 1.66668 17.494V9.31316C1.66745 9.09231 1.75517 8.88065 1.91084 8.72399L8.23167 2.40483C8.70142 1.93728 9.33722 1.67479 10 1.67479C10.6628 1.67479 11.2986 1.93728 11.7683 2.40483L18.0892 8.72649C18.2442 8.88253 18.3319 9.09318 18.3333 9.31316V17.494Z" fill="currentColor"/>
    </g>
    <defs>
        <clipPath id="clip0_2260_2309">
            <rect width="20" height="20" fill="white"/>
        </clipPath>
    </defs>
</svg>
