<svg width="24" height="24" viewBox="0 0 20 20" fill="none" xmlns="http://www.w3.org/2000/svg">
    <path d="M17.291 2.70931C16.8362 2.25511 16.2196 2 15.5768 2C14.934 2 14.3174 2.25511 13.8626 2.70931L2.98025 13.5918C2.66861 13.9017 2.42152 14.2703 2.25326 14.6763C2.08501 15.0823 1.99893 15.5177 2.00001 15.9572V17.3309C2.00001 17.5083 2.0705 17.6785 2.19599 17.804C2.32147 17.9295 2.49166 18 2.66911 18H4.04278C4.48223 18.0012 4.91755 17.9153 5.32355 17.7471C5.72956 17.579 6.09817 17.332 6.40807 17.0204L17.291 6.1372C17.745 5.68233 18 5.06592 18 4.42325C18 3.78059 17.745 3.16418 17.291 2.70931ZM5.46195 16.0743C5.08458 16.4491 4.5747 16.6602 4.04278 16.6618H3.33822V15.9572C3.33754 15.6935 3.38917 15.4323 3.49013 15.1887C3.59108 14.945 3.73936 14.7239 3.92636 14.538L12.1851 6.27905L13.724 7.81802L5.46195 16.0743ZM16.3443 5.19107L14.6675 6.86854L13.1285 5.33292L14.806 3.65544C14.907 3.55461 15.027 3.47467 15.1589 3.42018C15.2908 3.3657 15.4322 3.33774 15.575 3.33789C15.7177 3.33805 15.859 3.36632 15.9909 3.42109C16.1227 3.47586 16.2424 3.55606 16.3433 3.65711C16.4441 3.75816 16.524 3.87808 16.5785 4.01003C16.633 4.14197 16.661 4.28336 16.6608 4.42611C16.6606 4.56886 16.6324 4.71018 16.5776 4.84201C16.5228 4.97383 16.4426 5.09358 16.3416 5.19441L16.3443 5.19107Z" fill="currentColor"/>
</svg>
