<svg width="20" height="20" viewBox="0 0 20 20" fill="none" xmlns="http://www.w3.org/2000/svg">
    <g clip-path="url(#clip0_2330_81)">
        <path d="M16.75 4H14.425C14.2509 3.15356 13.7904 2.39301 13.1209 1.84654C12.4515 1.30007 11.6142 1.00109 10.75 1L9.25 1C8.38585 1.00109 7.54849 1.30007 6.87906 1.84654C6.20964 2.39301 5.74907 3.15356 5.575 4H3.25C3.05109 4 2.86032 4.07902 2.71967 4.21967C2.57902 4.36032 2.5 4.55109 2.5 4.75C2.5 4.94891 2.57902 5.13968 2.71967 5.28033C2.86032 5.42098 3.05109 5.5 3.25 5.5H4V15.25C4.00119 16.2442 4.39666 17.1973 5.09966 17.9003C5.80267 18.6033 6.7558 18.9988 7.75 19H12.25C13.2442 18.9988 14.1973 18.6033 14.9003 17.9003C15.6033 17.1973 15.9988 16.2442 16 15.25V5.5H16.75C16.9489 5.5 17.1397 5.42098 17.2803 5.28033C17.421 5.13968 17.5 4.94891 17.5 4.75C17.5 4.55109 17.421 4.36032 17.2803 4.21967C17.1397 4.07902 16.9489 4 16.75 4ZM9.25 2.5H10.75C11.2152 2.50057 11.6688 2.64503 12.0487 2.91358C12.4286 3.18213 12.7161 3.56162 12.8717 4H7.12825C7.28394 3.56162 7.57143 3.18213 7.95129 2.91358C8.33115 2.64503 8.78479 2.50057 9.25 2.5ZM14.5 15.25C14.5 15.8467 14.2629 16.419 13.841 16.841C13.419 17.2629 12.8467 17.5 12.25 17.5H7.75C7.15326 17.5 6.58097 17.2629 6.15901 16.841C5.73705 16.419 5.5 15.8467 5.5 15.25V5.5H14.5V15.25Z" fill="currentColor"/>
        <path d="M8.5 14.4995C8.69891 14.4995 8.88968 14.4205 9.03033 14.2798C9.17098 14.1392 9.25 13.9484 9.25 13.7495V9.24951C9.25 9.0506 9.17098 8.85983 9.03033 8.71918C8.88968 8.57853 8.69891 8.49951 8.5 8.49951C8.30109 8.49951 8.11032 8.57853 7.96967 8.71918C7.82902 8.85983 7.75 9.0506 7.75 9.24951V13.7495C7.75 13.9484 7.82902 14.1392 7.96967 14.2798C8.11032 14.4205 8.30109 14.4995 8.5 14.4995Z" fill="currentColor"/>
        <path d="M11.5 14.4995C11.6989 14.4995 11.8897 14.4205 12.0303 14.2798C12.171 14.1392 12.25 13.9484 12.25 13.7495V9.24951C12.25 9.0506 12.171 8.85983 12.0303 8.71918C11.8897 8.57853 11.6989 8.49951 11.5 8.49951C11.3011 8.49951 11.1103 8.57853 10.9697 8.71918C10.829 8.85983 10.75 9.0506 10.75 9.24951V13.7495C10.75 13.9484 10.829 14.1392 10.9697 14.2798C11.1103 14.4205 11.3011 14.4995 11.5 14.4995Z" fill="currentColor"/>
    </g>
    <defs>
        <clipPath id="clip0_2330_81">
            <rect width="18" height="18" fill="white" transform="translate(1 1)"/>
        </clipPath>
    </defs>
</svg>
